<svg xmlns="http://www.w3.org/2000/svg" width="325" height="138" viewBox="0 0 325 138">
  <defs>
    <style>
      .cls-1 {
        fill: #d3deea;
      }

      .cls-1, .cls-3, .cls-4 {
        fill-rule: evenodd;
      }

      .cls-2 {
        font-size: 25.481px;
        font-family: OpenSans;
        font-weight: 800;
      }

      .cls-2, .cls-3 {
        fill: #fff;
      }

      .cls-4 {
        fill: #d0d2d9;
      }
    </style>
  </defs>
  <g id="Date">
    <path id="bg_photo" data-name="bg photo" class="cls-1" d="M410.005,2296.01H515v138H410.005v-138Z" transform="translate(-410 -2296)"/>
    <path id="Şekil_1" data-name="Şekil 1" class="cls-1" d="M525,2397l-10-8v16l10-8" transform="translate(-410 -2296)"/>
    <text id="_2_Mar" data-name="2 Mar" class="cls-2" transform="translate(20.543 89.776) scale(0.865 0.863)">2<tspan dy="30.577">Mar</tspan></text>
    <path id="date_icon" data-name="date icon" class="cls-3" d="M452,2338.86V2323H432.965L431,2324.14V2347h20v-2h3S452,2343.39,452,2338.86Zm-1.323-3.43h-3.442v-3.61h3.442v3.61Zm-8.425-7.77v3.61h-3.849v-3.61h3.849Zm0.567,0h3.85v3.61h-3.85v-3.61ZM434,2327l3.84,0.66v3.61h-3.552Zm0.288,4.82h3.552v3.61h-3.552v-3.61Zm0,4.17h3.552v2.87c0,0.26.006,0.5,0.016,0.74h-3.568v-3.61Zm4.119,2.87v-2.87h3.849v2.87c0,0.26.006,0.5,0.016,0.74h-3.849C438.412,2339.36,438.407,2339.12,438.407,2338.86Zm0-3.43v-3.61h3.849v3.61h-3.849Zm4.416-3.61h3.85v3.61h-3.85v-3.61Zm7.858-.55h-3.442v-3.61h3.442v3.61Zm-12.791,8.88a6.714,6.714,0,0,0,1.072,3.52h-3.695a1.845,1.845,0,0,1-.4-0.57,7.326,7.326,0,0,1-.571-2.95h3.592Zm1.828,3.52c-0.444-.4-1.077-1.35-1.26-3.52h3.848a6.712,6.712,0,0,0,1.073,3.52h-3.661Zm4.416,0c-0.444-.4-1.077-1.35-1.259-3.52h3.847a6.712,6.712,0,0,0,1.073,3.52h-3.661Zm-1.3-4.07c-0.01-.24-0.016-0.48-0.016-0.74v-2.87h3.85v2.87c0,0.26,0,.5.015,0.74h-3.849Zm4.4-.74v-2.87h3.442v3.42c0,0.07,0,.13,0,0.19h-3.428C447.244,2339.36,447.239,2339.12,447.239,2338.86ZM450,2346H432v-21l0.965-.49v15.09c0,5,2,5.36,2,5.36L450,2345v1h0Zm1.11-2.33h-2.56c-0.445-.4-1.077-1.35-1.26-3.52H450.7a10.529,10.529,0,0,0,.685,3.52H451.11Z" transform="translate(-410 -2296)"/>
  </g>
  <g id="Photo">
    <path id="bg_photo_kopya_2" data-name="bg photo kopya 2" class="cls-4" d="M515.011,2296.01H735v138H515.011v-138Z" transform="translate(-410 -2296)"/>
  </g>
</svg>
