<svg xmlns="http://www.w3.org/2000/svg" width="53.969" height="44" viewBox="0 0 53.969 44">
  <defs>
    <style>
      .cls-1 {
        fill: #464646;
        fill-rule: evenodd;
      }
    </style>
  </defs>
  <path id="icon" class="cls-1" d="M476.284,959.76a3.672,3.672,0,0,0,0,5.167,3.614,3.614,0,0,0,5.133,0,3.672,3.672,0,0,0,0-5.167A3.614,3.614,0,0,0,476.284,959.76Zm42.247-37.237-0.052-.052a1.937,1.937,0,0,0-2.726.213l-13.767,13.854-9.09-9.149L467.251,953.2l-1.18-1.188L491.716,926.2a3.612,3.612,0,0,0-5.124.009l-20.531,20.662a3.672,3.672,0,0,0,0,5.167l8.183,8.234a5.035,5.035,0,0,1,9.238.06l21.073-21.209,0,0,13.767-13.855A1.965,1.965,0,0,0,518.531,922.523Z" transform="translate(-465.031 -922)"/>
</svg>
